<svg xmlns="http://www.w3.org/2000/svg" width="128" height="128" viewBox="0 0 32 32" fill="none" style="image-rendering:pixelated">
  <!-- HANDLE horizontal grip -->
  <rect x="2" y="8" width="6" height="2" fill="#ed407f"/>
  <!-- HANDLE vertical stem -->
  <rect x="4" y="10" width="2" height="10" fill="#ed407f"/>

  <!-- BASKET top rail -->
  <rect x="6" y="8" width="22" height="2" fill="#ed407f"/>
  <!-- BASKET left wall -->
  <rect x="6" y="10" width="2" height="12" fill="#ed407f"/>
  <!-- BASKET right wall -->
  <rect x="26" y="10" width="2" height="12" fill="#ed407f"/>
  <!-- BASKET bottom rail -->
  <rect x="8" y="22" width="18" height="2" fill="#ed407f"/>

  <!-- WIRE GRID INTERIOR -->
  <!-- Vertical wires -->
  <rect x="12" y="10" width="1" height="12" fill="#7e2553"/>
  <rect x="17" y="10" width="1" height="12" fill="#7e2553"/>
  <rect x="22" y="10" width="1" height="12" fill="#7e2553"/>
  <!-- Horizontal wires -->
  <rect x="8" y="14" width="18" height="1" fill="#7e2553"/>
  <rect x="8" y="18" width="18" height="1" fill="#7e2553"/>

  <!-- AXLE -->
  <rect x="10" y="24" width="14" height="1" fill="#7e2553"/>

  <!-- LEFT WHEEL -->
  <rect x="9"  y="24" width="4" height="1" fill="#ed407f"/>
  <rect x="8"  y="25" width="6" height="4" fill="#ed407f"/>
  <rect x="9"  y="29" width="4" height="1" fill="#ed407f"/>
  <rect x="10" y="26" width="2" height="2" fill="#7e2553"/>

  <!-- RIGHT WHEEL -->
  <rect x="21" y="24" width="4" height="1" fill="#ed407f"/>
  <rect x="20" y="25" width="6" height="4" fill="#ed407f"/>
  <rect x="21" y="29" width="4" height="1" fill="#ed407f"/>
  <rect x="22" y="26" width="2" height="2" fill="#7e2553"/>
</svg>
